<svg width="163" height="31" viewBox="0 0 163 31" fill="none" xmlns="http://www.w3.org/2000/svg">
<path d="M25.7676 13.613C25.7676 11.5404 26.295 9.59078 27.3545 7.76166C28.4094 5.93717 29.829 4.47666 31.6086 3.38707C33.3905 2.29516 35.2916 1.75037 37.312 1.75037C38.8852 1.75037 40.3712 2.06102 41.7724 2.68C43.1736 3.30129 44.4074 4.16601 45.4692 5.27415C46.5287 6.38228 47.3543 7.6527 47.9437 9.08539C48.533 10.5181 48.8289 12.0296 48.8289 13.613C48.8289 15.1964 48.533 16.7032 47.9437 18.1383C47.352 19.5733 46.531 20.8437 45.4784 21.9518C44.4258 23.0623 43.1966 23.934 41.7862 24.5645C40.3758 25.1974 38.8852 25.5127 37.312 25.5127C35.7847 25.5127 34.317 25.2044 32.9158 24.5877C31.5123 23.9687 30.2716 23.104 29.1915 21.9912C28.1113 20.8761 27.2697 19.5988 26.6688 18.1614C26.068 16.7218 25.7676 15.2056 25.7676 13.613ZM28.8566 13.5829C28.8566 14.7281 29.0768 15.8478 29.5148 16.9397C29.9551 18.0316 30.5651 19.0053 31.3449 19.8584C32.1269 20.7116 33.0304 21.3839 34.0601 21.8753C35.0852 22.3645 36.1699 22.6102 37.3097 22.6102C38.477 22.6102 39.5755 22.3668 40.612 21.8753C41.6486 21.3862 42.5499 20.7139 43.3181 19.8654C44.0864 19.0123 44.6826 18.0432 45.1069 16.9559C45.5288 15.8687 45.7421 14.7443 45.7421 13.5829C45.7421 12.4307 45.5288 11.3109 45.1023 10.219C44.6734 9.12944 44.0749 8.16272 43.3021 7.31191C42.5292 6.46574 41.6303 5.79808 40.6074 5.31819C39.5846 4.83599 38.4884 4.59721 37.3097 4.59721C35.7801 4.59721 34.3674 5.00986 33.0717 5.84212C31.776 6.67207 30.7509 7.78252 29.9941 9.16885C29.2373 10.5529 28.8566 12.025 28.8566 13.5829Z" fill="white"/>
<path d="M47.6521 0.333832C45.6294 0.113596 43.5494 0 41.4327 0C27.8266 0 15.8832 4.71074 9.12256 11.8C14.2962 8.91378 20.3711 6.71373 27.0217 5.39695C32.8283 2.48519 39.9283 0.649118 47.6521 0.333832Z" fill="white"/>
<path d="M47.6409 0.336182C39.9355 0.651467 32.8492 2.48291 27.0518 5.38307C31.6085 4.48126 36.4359 3.99674 41.4353 3.99674C53.7456 3.99674 65.0194 6.934 73.7454 11.8001C68.0351 5.81195 58.6258 1.52314 47.6409 0.336182Z" fill="white"/>
<path d="M52.8215 4.15205C50.9273 3.38933 48.9596 2.71472 46.9209 2.13515C33.8171 -1.56946 21.0595 -0.285134 12.6592 4.69916C18.4107 3.32906 24.848 2.8654 31.604 3.40788C37.9702 2.18615 45.2995 2.35306 52.8215 4.15205Z" fill="white"/>
<path d="M52.8142 4.15206C45.3083 2.35539 37.9973 2.18848 31.6426 3.40093C36.2681 3.77418 41.0451 4.62267 45.8564 5.98349C57.7081 9.33804 67.7848 15.2357 74.8917 22.3018C70.9885 14.9807 63.0721 8.28786 52.8142 4.15206Z" fill="white"/>
<path d="M27.2993 30.9443C29.3747 31.0347 31.496 31.0162 33.6517 30.8771C47.5101 29.9869 59.3686 24.4091 65.8013 16.7472C60.7171 20.0252 54.6743 22.6634 47.9825 24.4416C42.2561 27.7845 35.1447 30.119 27.2993 30.9443Z" fill="white"/>
<path d="M47.9481 24.4601C43.3707 25.6749 38.4928 26.4816 33.4086 26.8085C20.8689 27.6153 9.20067 25.3619 0 20.9757C6.19646 26.6972 16.0484 30.4505 27.3062 30.9443C35.1332 30.119 42.2286 27.7914 47.9481 24.4601Z" fill="white"/>
<path d="M28.7026 25.9022C30.7139 26.4192 32.7962 26.8411 34.9358 27.1517C48.6818 29.1455 61.421 26.134 69.2663 19.9628C63.6225 22.1211 57.1738 23.4541 50.2664 23.8111C43.9828 25.8999 36.5457 26.7159 28.7026 25.9022Z" fill="white"/>
<path d="M35.5164 23.1179C23.0799 21.3143 12.1156 16.6986 3.99512 10.5042C8.90275 17.3848 17.7847 23.0947 28.7053 25.9045C36.5346 26.7159 43.9534 25.9045 50.2301 23.825C45.5013 24.0661 40.5616 23.8482 35.5164 23.1179Z" fill="white"/>
</svg>
