<svg width="96" height="39" viewBox="0 0 96 39" fill="none" xmlns="http://www.w3.org/2000/svg">
<path d="M32.5649 17.1259C32.5649 14.5186 33.2315 12.0657 34.5705 9.76459C35.9037 7.46927 37.6978 5.63185 39.9468 4.26107C42.1988 2.88738 44.6014 2.202 47.1548 2.202C49.143 2.202 51.0211 2.59281 52.7919 3.37153C54.5628 4.15316 56.122 5.24103 57.4639 6.63514C58.8029 8.02925 59.8463 9.62751 60.5912 11.4299C61.336 13.2324 61.7099 15.1339 61.7099 17.1259C61.7099 19.1179 61.336 21.0137 60.5912 22.819C59.8434 24.6244 58.8058 26.2226 57.4755 27.6167C56.1452 29.0138 54.5918 30.1104 52.8093 30.9037C51.0269 31.6999 49.143 32.0966 47.1548 32.0966C45.2246 32.0966 43.3697 31.7086 41.5988 30.9328C39.8251 30.1541 38.2571 29.0663 36.8921 27.6663C35.527 26.2635 34.4633 24.6565 33.704 22.8482C32.9446 21.037 32.5649 19.1296 32.5649 17.1259ZM36.4689 17.088C36.4689 18.5288 36.7471 19.9375 37.3007 21.3112C37.8572 22.6849 38.6281 23.9098 39.6135 24.9831C40.6018 26.0564 41.7438 26.9022 43.0451 27.5205C44.3406 28.1359 45.7115 28.445 47.1519 28.445C48.6271 28.445 50.0154 28.1388 51.3254 27.5205C52.6354 26.9051 53.7745 26.0593 54.7454 24.9919C55.7163 23.9186 56.4698 22.6995 57.006 21.3316C57.5393 19.9637 57.8088 18.5492 57.8088 17.088C57.8088 15.6385 57.5393 14.2298 57.0002 12.8561C56.4582 11.4853 55.7018 10.2692 54.7251 9.19878C53.7484 8.13424 52.6122 7.29428 51.3196 6.69055C50.027 6.08391 48.6416 5.78351 47.1519 5.78351C45.2188 5.78351 43.4334 6.30265 41.7959 7.34969C40.1584 8.39382 38.8629 9.79084 37.9064 11.5349C36.95 13.2761 36.4689 15.1281 36.4689 17.088Z" fill="#009FE3"/>
<path d="M60.223 0.419982C57.6668 0.142911 55.0381 0 52.363 0C35.1675 0 20.0734 5.92641 11.5293 14.8452C18.0678 11.2141 25.7453 8.44631 34.1503 6.78971C41.4887 3.12653 50.4617 0.816632 60.223 0.419982Z" fill="#DD3532"/>
<path d="M60.2086 0.422882C50.4704 0.819532 41.5148 3.1236 34.188 6.77219C39.9468 5.63766 46.0477 5.0281 52.3659 5.0281C67.9238 5.0281 82.1717 8.72336 93.1996 14.8452C85.9829 7.31176 74.0913 1.91615 60.2086 0.422882Z" fill="#DD3532"/>
<path d="M66.7559 5.22351C64.3619 4.26396 61.8752 3.41525 59.2986 2.68612C42.7379 -1.97452 26.6149 -0.358754 15.9985 5.91181C23.2674 4.18813 31.4028 3.60483 39.9411 4.2873C47.9867 2.75028 57.2496 2.96027 66.7559 5.22351Z" fill="#DD3532"/>
<path d="M66.747 5.22353C57.261 2.96321 48.0213 2.75322 39.9902 4.27857C45.836 4.74813 51.8731 5.81559 57.9537 7.5276C72.9319 11.7478 85.6669 19.1675 94.6486 28.0571C89.7158 18.8467 79.711 10.4266 66.747 5.22353Z" fill="#DD3532"/>
<path d="M34.501 38.93C37.1239 39.0437 39.8048 39.0204 42.5292 38.8454C60.0434 37.7255 75.0303 30.7083 83.1599 21.0691C76.7345 25.1931 69.0976 28.5121 60.6404 30.7491C53.4035 34.9548 44.4159 37.8917 34.501 38.93Z" fill="#DD3532"/>
<path d="M60.5969 30.7724C54.812 32.3007 48.6474 33.3156 42.2219 33.7269C26.3742 34.7418 11.6278 31.907 0 26.3889C7.83111 33.5869 20.2821 38.3088 34.5096 38.93C44.4014 37.8917 53.3687 34.9635 60.5969 30.7724Z" fill="#DD3532"/>
<path d="M36.2749 32.5865C38.8167 33.2369 41.4483 33.7677 44.1524 34.1585C61.5246 36.6668 77.6245 32.8782 87.5394 25.1143C80.4068 27.8296 72.2569 29.5067 63.5273 29.9558C55.586 32.5836 46.187 33.6102 36.2749 32.5865Z" fill="#DD3532"/>
<path d="M44.8855 29.0838C29.1682 26.8147 15.3116 21.0078 5.04883 13.2148C11.2511 21.8711 22.4761 29.0546 36.2776 32.5894C46.1723 33.6102 55.5482 32.5894 63.4808 29.9733C57.5045 30.2766 51.2617 30.0025 44.8855 29.0838Z" fill="#DD3532"/>
</svg>
